<?xml version="1.0" standalone="no"?>
<!DOCTYPE svg PUBLIC "-//W3C//DTD SVG 20010904//EN"
 "http://www.w3.org/TR/2001/REC-SVG-20010904/DTD/svg10.dtd">
<svg version="1.0" xmlns="http://www.w3.org/2000/svg"
 width="300.000000pt" height="300.000000pt" viewBox="0 0 300.000000 300.000000"
 preserveAspectRatio="xMidYMid meet">
<metadata>
Created by potrace 1.10, written by Peter Selinger 2001-2011
</metadata>
<g transform="translate(0.000000,300.000000) scale(0.100000,-0.100000)"
fill="#000000" stroke="none">
<path d="M962 2364 c-61 -30 -98 -74 -118 -140 -20 -69 -21 -1428 0 -1496 32
-107 112 -163 220 -156 82 5 135 39 171 111 21 43 25 65 25 143 l0 92 233 4
c219 4 237 6 312 31 110 37 197 90 281 172 237 234 286 612 117 905 -57 98
-200 236 -293 283 -142 70 -189 77 -565 77 l-331 0 -52 -26z m323 -295 c22 -6
53 -20 68 -31 26 -19 30 -19 68 -4 50 20 153 21 209 1 40 -14 43 -14 87 12 54
31 139 36 189 10 46 -24 92 -75 110 -124 20 -52 14 -131 -14 -175 -19 -29 -19
-30 -1 -66 25 -48 24 -118 -3 -189 -25 -69 -124 -173 -205 -216 -66 -35 -191
-67 -262 -67 -195 1 -381 102 -461 252 -28 53 -34 74 -34 128 0 42 5 76 16 96
16 30 16 33 -2 70 -26 50 -26 135 -1 190 22 48 75 94 128 111 49 15 60 15 108
2z"/>
<path d="M1167 1950 c-30 -24 -51 -80 -42 -112 10 -32 53 -75 82 -83 14 -3 40
-1 59 5 84 28 101 135 30 192 -29 24 -97 23 -129 -2z"/>
<path d="M1757 1950 c-30 -24 -51 -80 -42 -112 10 -32 53 -75 82 -83 35 -8 89
12 113 42 35 45 18 137 -29 163 -33 17 -96 12 -124 -10z"/>
<path d="M1386 1714 c-9 -8 -16 -26 -16 -39 0 -56 71 -73 99 -24 13 24 13 29
-2 53 -20 30 -57 35 -81 10z"/>
<path d="M1596 1717 c-22 -16 -19 -75 5 -90 24 -15 68 0 81 28 23 51 -39 96
-86 62z"/>
<path d="M1142 1638 c-34 -34 5 -118 80 -172 66 -47 141 -68 270 -73 193 -9
331 36 398 129 41 56 47 84 25 108 -28 31 -52 24 -80 -20 -50 -79 -153 -120
-305 -120 -154 0 -261 41 -313 118 -29 42 -53 52 -75 30z"/>
</g>
</svg>
